<?xml version="1.0" encoding="UTF-8"?>
<svg version="1.1" xmlns="http://www.w3.org/2000/svg" width="268" height="188">
<path d="M0 0 C88.44 0 176.88 0 268 0 C268 62.04 268 124.08 268 188 C179.56 188 91.12 188 0 188 C0 125.96 0 63.92 0 0 Z " fill="#160A0E" transform="translate(0,0)"/>
<path d="M0 0 C0.99 0 1.98 0 3 0 C4.60757525 3.66518139 6.21043485 7.33240717 7.8125 11 C8.26431641 12.02996094 8.71613281 13.05992188 9.18164062 14.12109375 C11.61503244 19.69835674 13.92977884 25.27766111 16 31 C16.97839844 30.80083984 16.97839844 30.80083984 17.9765625 30.59765625 C19.78823943 30.23157994 21.60078883 29.86980221 23.4140625 29.51171875 C25.2780584 29.14286155 27.13979903 28.76254187 29 28.375 C41.79144387 26.77606952 54.52629263 29.16249976 66 35 C62.5361488 36.15461707 60.6736904 35.5462356 57.23046875 34.5703125 C33.1648942 28.41694318 14.60261021 39.12743282 -5.61938477 50.48291016 C-11.27367283 53.64191622 -16.95751711 56.64174085 -23 59 C-23.63188232 59.25604004 -24.26376465 59.51208008 -24.91479492 59.77587891 C-31.04395266 62.07098903 -36.67385994 62.5407476 -43.1875 62.5 C-44.19401611 62.49718018 -45.20053223 62.49436035 -46.23754883 62.49145508 C-56.10188374 62.27861269 -65.15680123 60.38312836 -73 54 C-69.88745339 54.45549463 -67.02508039 54.991419 -64.04296875 56.01171875 C-58.75043315 57.53963376 -53.34510079 57.4244614 -47.875 57.4375 C-46.76439209 57.44136719 -45.65378418 57.44523437 -44.50952148 57.44921875 C-35.92223511 57.32847477 -29.68938687 55.89336044 -22 52 C-21.34 52 -20.68 52 -20 52 C-19.77699219 50.78441406 -19.55398437 49.56882813 -19.32421875 48.31640625 C-17.89461881 41.90262703 -15.33967761 35.9841447 -12.8125 29.9375 C-12.07809692 28.1579895 -12.07809692 28.1579895 -11.32885742 26.3425293 C-7.66966667 17.51006212 -3.91381701 8.72260242 0 0 Z " fill="#F4BD47" transform="translate(131,53)"/>
<path d="M0 0 C0.79921875 0.00902344 1.5984375 0.01804687 2.421875 0.02734375 C3.02515625 0.03894531 3.6284375 0.05054687 4.25 0.0625 C1.91785852 1.26878008 -0.24642139 2.2279738 -2.75 3.0625 C-1.76324342 8.72794225 0.39408014 13.76114713 2.5625 19.0625 C2.95373047 20.04734375 3.34496094 21.0321875 3.74804688 22.046875 C6.82861944 30.46039246 6.82861944 30.46039246 13.390625 35.98828125 C14.08671875 36.11589844 14.7828125 36.24351562 15.5 36.375 C17.35625 36.7153125 17.35625 36.7153125 19.25 37.0625 C19.25 37.7225 19.25 38.3825 19.25 39.0625 C10.01 39.0625 0.77 39.0625 -8.75 39.0625 C-8.75 38.4025 -8.75 37.7425 -8.75 37.0625 C-7.76 37.0625 -6.77 37.0625 -5.75 37.0625 C-9.05 28.1525 -12.35 19.2425 -15.75 10.0625 C-19.09431409 10.0625 -19.78318557 10.52354821 -22.4453125 12.36328125 C-23.16203125 12.84603516 -23.87875 13.32878906 -24.6171875 13.82617188 C-26.10099468 14.84404306 -27.58283128 15.86479397 -29.0625 16.88867188 C-34.09689862 20.27031864 -38.90113468 22.45160562 -44.75 24.0625 C-45.73248524 28.1152516 -45.83159574 31.90111737 -45.75 36.0625 C-43.77 36.3925 -41.79 36.7225 -39.75 37.0625 C-39.75 37.7225 -39.75 38.3825 -39.75 39.0625 C-48.66 39.0625 -57.57 39.0625 -66.75 39.0625 C-66.75 38.4025 -66.75 37.7425 -66.75 37.0625 C-66.14671875 36.93875 -65.5434375 36.815 -64.921875 36.6875 C-59.93775833 35.45362026 -59.93775833 35.45362026 -56.26171875 32.08203125 C-55.29708737 30.10015223 -54.45861752 28.14870961 -53.75 26.0625 C-56.06 26.0625 -58.37 26.0625 -60.75 26.0625 C-60.75 25.7325 -60.75 25.4025 -60.75 25.0625 C-59.35201172 24.75119141 -59.35201172 24.75119141 -57.92578125 24.43359375 C-45.06072245 21.32464628 -34.77362906 15.45269467 -23.79125977 8.20629883 C-16.55192223 3.50894088 -8.74315946 -0.12857587 0 0 Z " fill="#F8B840" transform="translate(156.75,95.9375)"/>
<path d="M0 0 C0.79921875 0.00902344 1.5984375 0.01804687 2.421875 0.02734375 C3.02515625 0.03894531 3.6284375 0.05054687 4.25 0.0625 C1.91785852 1.26878008 -0.24642139 2.2279738 -2.75 3.0625 C-1.76324342 8.72794225 0.39408014 13.76114713 2.5625 19.0625 C2.95373047 20.04734375 3.34496094 21.0321875 3.74804688 22.046875 C6.82861944 30.46039246 6.82861944 30.46039246 13.390625 35.98828125 C14.43476563 36.17970703 14.43476563 36.17970703 15.5 36.375 C17.35625 36.7153125 17.35625 36.7153125 19.25 37.0625 C19.25 37.7225 19.25 38.3825 19.25 39.0625 C10.01 39.0625 0.77 39.0625 -8.75 39.0625 C-8.75 38.4025 -8.75 37.7425 -8.75 37.0625 C-7.76 37.0625 -6.77 37.0625 -5.75 37.0625 C-6.1109375 36.14726562 -6.471875 35.23203125 -6.84375 34.2890625 C-7.3078125 33.10054687 -7.771875 31.91203125 -8.25 30.6875 C-8.7140625 29.50414063 -9.178125 28.32078125 -9.65625 27.1015625 C-10.75 24.0625 -10.75 24.0625 -10.75 22.0625 C-9.76 22.0625 -8.77 22.0625 -7.75 22.0625 C-7.58246763 19.77089646 -7.41599948 17.47921509 -7.25 15.1875 C-7.1571875 13.91132812 -7.064375 12.63515625 -6.96875 11.3203125 C-6.85123196 9.57013316 -6.75 7.81662035 -6.75 6.0625 C-6.75 5.0725 -6.75 4.0825 -6.75 3.0625 C-7.41 2.4025 -8.07 1.7425 -8.75 1.0625 C-5.75519083 0.1901588 -3.11424089 -0.04579766 0 0 Z " fill="#E4A63C" transform="translate(156.75,95.9375)"/>
<path d="M0 0 C0.66 0 1.32 0 2 0 C2.38671875 0.95261719 2.7734375 1.90523438 3.171875 2.88671875 C3.69748878 4.15382341 4.22355455 5.42074065 4.75 6.6875 C5.00265625 7.31333984 5.2553125 7.93917969 5.515625 8.58398438 C8.39687458 15.51651684 8.39687458 15.51651684 14.140625 19.92578125 C15.18476563 20.11720703 15.18476563 20.11720703 16.25 20.3125 C18.10625 20.6528125 18.10625 20.6528125 20 21 C20 21.66 20 22.32 20 23 C10.76 23 1.52 23 -8 23 C-7.67 22.34 -7.34 21.68 -7 21 C-5.02 21 -3.04 21 -1 21 C-1.01160156 19.73542969 -1.02320313 18.47085938 -1.03515625 17.16796875 C-1.04453566 15.50781398 -1.0536357 13.84765761 -1.0625 12.1875 C-1.07087891 11.35412109 -1.07925781 10.52074219 -1.08789062 9.66210938 C-1.09111328 8.85966797 -1.09433594 8.05722656 -1.09765625 7.23046875 C-1.10289307 6.49207764 -1.10812988 5.75368652 -1.11352539 4.99291992 C-1 3 -1 3 0 0 Z " fill="#D4983A" transform="translate(156,112)"/>
<path d="M0 0 C0.5990918 0.34756348 1.19818359 0.69512695 1.81542969 1.05322266 C2.47542969 0.72322266 3.13542969 0.39322266 3.81542969 0.05322266 C3.81542969 1.04322266 3.81542969 2.03322266 3.81542969 3.05322266 C-10.11327795 9.81238754 -26.69062722 10.78794813 -41.37207031 5.74072266 C-45.05575938 4.22818448 -48.09593257 2.56688727 -51.18457031 0.05322266 C-48.07267798 0.50862153 -45.21493854 1.04276472 -42.23535156 2.06884766 C-36.90006864 3.61132549 -31.44582621 3.42166944 -25.93457031 3.42822266 C-24.33162109 3.46496094 -24.33162109 3.46496094 -22.69628906 3.50244141 C-15.90396512 3.52720079 -10.73213808 2.54027683 -4.53320312 -0.28027344 C-2.18457031 -0.94677734 -2.18457031 -0.94677734 0 0 Z " fill="#F0C451" transform="translate(109.1845703125,106.94677734375)"/>
<path d="M0 0 C0 3.96 0 7.92 0 12 C2.97 12.495 2.97 12.495 6 13 C6 13.66 6 14.32 6 15 C-2.91 15 -11.82 15 -21 15 C-21 14.34 -21 13.68 -21 13 C-20.39671875 12.87625 -19.7934375 12.7525 -19.171875 12.625 C-14.18775833 11.39112026 -14.18775833 11.39112026 -10.51171875 8.01953125 C-9.54708737 6.03765223 -8.70861752 4.08620961 -8 2 C-10.31 2 -12.62 2 -15 2 C-15 1.67 -15 1.34 -15 1 C-10.01354726 -0.32972073 -5.12222534 -0.06829634 0 0 Z " fill="#F5CB57" transform="translate(111,120)"/>
<path d="M0 0 C-3.4638512 1.15461707 -5.3263096 0.5462356 -8.76953125 -0.4296875 C-22.91367454 -4.04622852 -36.49814962 -1.87566819 -50 3 C-50.33 0.69 -50.66 -1.62 -51 -4 C-49.576875 -4.185625 -49.576875 -4.185625 -48.125 -4.375 C-45.10430757 -4.79437179 -42.16353925 -5.39959078 -39.1875 -6.0625 C-25.78532784 -8.71878637 -12.12372636 -6.16821166 0 0 Z " fill="#F0B03F" transform="translate(197,88)"/>
<path d="M0 0 C2.8872854 1.4436427 3.08202541 3.26481951 4.1875 6.25 C4.55230469 7.20390625 4.91710937 8.1578125 5.29296875 9.140625 C6.09089 12.36757724 6.28220689 13.9257323 5 17 C2.27734375 19.01953125 2.27734375 19.01953125 -1.0625 20.8125 C-2.16722656 21.41707031 -3.27195312 22.02164063 -4.41015625 22.64453125 C-5.26480469 23.09183594 -6.11945313 23.53914063 -7 24 C-8.20171204 20.39486388 -7.70719075 19.56440728 -6.34765625 16.11328125 C-5.98349609 15.17548828 -5.61933594 14.23769531 -5.24414062 13.27148438 C-4.65922852 11.80678711 -4.65922852 11.80678711 -4.0625 10.3125 C-3.67642578 9.32443359 -3.29035156 8.33636719 -2.89257812 7.31835938 C-1.93667875 4.87550541 -0.97221707 2.43639559 0 0 Z " fill="#170D0F" transform="translate(129,75)"/>
<path d="M0 0 C0.99 0.33 1.98 0.66 3 1 C3 1.66 3 2.32 3 3 C0.54073061 5.0628726 -2.23861917 6.70524762 -4.9375 8.4375 C-5.67291016 8.92798828 -6.40832031 9.41847656 -7.16601562 9.92382812 C-11.73693864 12.88195385 -15.97445443 14.87030786 -21.25219727 16.24633789 C-21.82897217 16.49504639 -22.40574707 16.74375488 -23 17 C-23.33 17.99 -23.66 18.98 -24 20 C-24.66 19.34 -25.32 18.68 -26 18 C-28.06874034 17.3574765 -28.06874034 17.3574765 -30 17 C-26.64329559 14.76219706 -23.11939002 13.06907367 -19.5 11.3125 C-13.37492353 8.31824926 -7.7290297 5.06610501 -2.13671875 1.15234375 C-1.43160156 0.77207031 -0.72648437 0.39179687 0 0 Z " fill="#EEBE49" transform="translate(135,103)"/>
<path d="M0 0 C1.13018272 1.69527407 2.23143585 3.4134889 3.2265625 5.19140625 C5.9013484 9.9172932 5.9013484 9.9172932 10.171875 13.03125 C12.59160376 13.65989649 12.59160376 13.65989649 16 14 C16 14.66 16 15.32 16 16 C10.39 16 4.78 16 -1 16 C-1.020625 13.545625 -1.04125 11.09125 -1.0625 8.5625 C-1.071604 7.78849854 -1.08070801 7.01449707 -1.09008789 6.21704102 C-1.09724913 4.47778283 -1.05024702 2.73854696 -1 1 C-0.67 0.67 -0.34 0.34 0 0 Z " fill="#BF893A" transform="translate(160,119)"/>
<path d="M0 0 C11.85088628 -0.75287983 23.43296901 1.62379125 34 7 C30.57594743 8.14135086 29.03712067 7.54596912 25.66015625 6.60546875 C20.93703431 5.53045568 16.10187165 5.10271778 11.29296875 4.5625 C8 4 8 4 5 2 C3.34450469 1.61500109 1.6777567 1.27206865 0 1 C0 0.67 0 0.34 0 0 Z " fill="#A17334" transform="translate(163,81)"/>
<path d="M0 0 C3.14546092 0.46031135 6.06390313 1.02065556 9.09375 2 C13.65610998 3.32769327 18.21272385 3.45253669 22.9375 3.625 C23.81212891 3.66367188 24.68675781 3.70234375 25.58789062 3.7421875 C27.72494631 3.8356107 29.86244294 3.91885398 32 4 C32 4.33 32 4.66 32 5 C28.92382812 5.29296875 28.92382812 5.29296875 25.84765625 5.5859375 C25.23792969 5.72257812 24.62820312 5.85921875 24 6 C23.67 6.66 23.34 7.32 23 8 C14.79761448 7.1274058 7.49413913 4.34844514 0 1 C0 0.67 0 0.34 0 0 Z " fill="#C3A648" transform="translate(58,107)"/>
<path d="M0 0 C-2.89971503 3.367411 -5.8647865 4.02149536 -10.0390625 5.15625 C-10.68617187 5.4346875 -11.33328125 5.713125 -12 6 C-12.33 6.99 -12.66 7.98 -13 9 C-13.66 8.34 -14.32 7.68 -15 7 C-17.06874034 6.3574765 -17.06874034 6.3574765 -19 6 C-16.25427599 4.16951733 -13.59704396 2.73338129 -10.625 1.3125 C-9.68914062 0.85488281 -8.75328125 0.39726563 -7.7890625 -0.07421875 C-4.69103877 -1.10255436 -3.08616881 -0.92585064 0 0 Z " fill="#E0BC4F" transform="translate(124,114)"/>
<path d="M0 0 C2.125 0.9375 2.125 0.9375 4 2 C2.25 7.75 2.25 7.75 0 10 C-0.2475 9.38125 -0.495 8.7625 -0.75 8.125 C-2.20628639 5.64931313 -3.37812506 5.04874998 -6 4 C-4.03617993 2.49440461 -2.21736634 1.10868317 0 0 Z " fill="#EBB441" transform="translate(142,99)"/>
<path d="M0 0 C0 0.66 0 1.32 0 2 C6.27 1.67 12.54 1.34 19 1 C19 1.66 19 2.32 19 3 C10.09 3 1.18 3 -8 3 C-8 2.34 -8 1.68 -8 1 C-5.23735711 0.40267181 -2.83967231 0 0 0 Z " fill="#E3C353" transform="translate(98,132)"/>
<path d="M0 0 C1.60332791 -0.08121924 3.20784026 -0.13929134 4.8125 -0.1875 C6.15248047 -0.23970703 6.15248047 -0.23970703 7.51953125 -0.29296875 C10 0 10 0 13 3 C8.38 3 3.76 3 -1 3 C-0.67 2.01 -0.34 1.02 0 0 Z " fill="#FED65B" transform="translate(82,112)"/>
<path d="M0 0 C1.95766281 -0.08082094 3.91626728 -0.13910778 5.875 -0.1875 C7.51082031 -0.23970703 7.51082031 -0.23970703 9.1796875 -0.29296875 C10.11039063 -0.19628906 11.04109375 -0.09960938 12 0 C12.66 0.99 13.32 1.98 14 3 C5.96498906 4.61050328 5.96498906 4.61050328 1.9375 2.0625 C1.298125 1.381875 0.65875 0.70125 0 0 Z " fill="#DEA13B" transform="translate(157,82)"/>
<path d="M0 0 C4.48525648 0.656379 8.66914029 1.70074209 13 3 C13 3.99 13 4.98 13 6 C3.40546697 3.10933941 3.40546697 3.10933941 0 0 Z " fill="#B6A148" transform="translate(58,107)"/>
<path d="M0 0 C4.455 0.99 4.455 0.99 9 2 C9 2.66 9 3.32 9 4 C2.9453125 4.1953125 2.9453125 4.1953125 1 4 C0.34 3.34 -0.32 2.68 -1 2 C-0.67 1.34 -0.34 0.68 0 0 Z " fill="#986B33" transform="translate(167,131)"/>
<path d="M0 0 C1.98 0.99 1.98 0.99 4 2 C3.67 2.33 3.34 2.66 3 3 C3.99 3.33 4.98 3.66 6 4 C6 4.66 6 5.32 6 6 C4.35 6.33 2.7 6.66 1 7 C0.67 4.69 0.34 2.38 0 0 Z " fill="#E1AD3E" transform="translate(146,84)"/>
<path d="M0 0 C1.62463842 -0.05395478 3.24978541 -0.09277195 4.875 -0.125 C5.77992188 -0.14820312 6.68484375 -0.17140625 7.6171875 -0.1953125 C10 0 10 0 12 2 C10.02 2.99 10.02 2.99 8 4 C7.01 3.34 6.02 2.68 5 2 C3.34450469 1.61500109 1.6777567 1.27206865 0 1 C0 0.67 0 0.34 0 0 Z " fill="#AB7A32" transform="translate(163,81)"/>
<path d="M0 0 C0.79921875 0.00902344 1.5984375 0.01804687 2.421875 0.02734375 C3.02515625 0.03894531 3.6284375 0.05054687 4.25 0.0625 C1.30047042 1.56247444 -1.66489173 2.86273567 -4.75 4.0625 C-4.75 3.4025 -4.75 2.7425 -4.75 2.0625 C-6.07 1.7325 -7.39 1.4025 -8.75 1.0625 C-5.75519083 0.1901588 -3.11424089 -0.04579766 0 0 Z " fill="#9C722C" transform="translate(156.75,95.9375)"/>
<path d="M0 0 C1.32 0 2.64 0 4 0 C4 2.64 4 5.28 4 8 C3.34 7.67 2.68 7.34 2 7 C1.26924352 4.6859378 0.59861742 2.35171131 0 0 Z " fill="#EAAF3E" transform="translate(146,118)"/>
<path d="M0 0 C-2.05233685 2.2477975 -3.00667261 3.0022242 -6 4 C-6.33 2.68 -6.66 1.36 -7 0 C-4.3333581 -1.33332095 -2.83319697 -0.67102033 0 0 Z " fill="#DDB74C" transform="translate(124,114)"/>
</svg>
